<?xml version="1.0" encoding="UTF-8" standalone="no" ?>
<!DOCTYPE svg PUBLIC "-//W3C//DTD SVG 1.1//EN" "http://www.w3.org/Graphics/SVG/1.1/DTD/svg11.dtd">
<svg xmlns="http://www.w3.org/2000/svg" xmlns:xlink="http://www.w3.org/1999/xlink" version="1.1" width="300" height="100" viewBox="0 0 300 100" xml:space="preserve">
<desc>Created with Fabric.js 5.2.4</desc>
<defs>
</defs>
<rect x="0" y="0" width="100%" height="100%" fill="transparent"></rect>
<g transform="matrix(1 0 0 1 150 50)" id="8baa75b3-78b6-4dff-8577-ac29fc6486f7"  >
<rect style="stroke: none; stroke-width: 1; stroke-dasharray: none; stroke-linecap: butt; stroke-dashoffset: 0; stroke-linejoin: miter; stroke-miterlimit: 4; fill: rgb(255,255,255); fill-rule: nonzero; opacity: 1; visibility: hidden;" vector-effect="non-scaling-stroke"  x="-150" y="-50" rx="0" ry="0" width="300" height="100" />
</g>
<g transform="matrix(Infinity NaN NaN Infinity 0 0)" id="f54ab889-c46e-4379-abf8-70ff765f11cf"  >
</g>
<g transform="matrix(0.39 0 0 0.39 300 115.11)" id="0e0abfaf-6323-473b-902f-dc9ef4ffc072"  >
<path style="stroke: rgb(0,0,0); stroke-width: 0; stroke-dasharray: none; stroke-linecap: butt; stroke-dashoffset: 0; stroke-linejoin: miter; stroke-miterlimit: 4; fill: rgb(8,8,8); fill-rule: nonzero; opacity: 1;" vector-effect="non-scaling-stroke"  transform=" translate(-184.71, 16.05)" d="M 28.32 -24.18 C 27.58 -26.45 26.19 -28.39 24.16 -29.99 C 23.19 -30.77 21.89 -31.36 20.26 -31.77 C 18.63 -32.18 17.08 -32.38 15.6 -32.38 C 11.47 -32.38 7.6 -32.32 3.99 -32.19 L 3.67 -31.87 L 3.67 -0.23 L 3.99 0.09 C 9.45 0.22 13.11 0.28 14.99 0.28 C 16.87 0.28 18.63 0.09 20.26 -0.31 C 21.89 -0.7 23.19 -1.28 24.16 -2.07 C 26.23 -3.67 27.62 -5.61 28.34 -7.9 C 29.06 -10.18 29.42 -12.9 29.42 -16.05 C 29.42 -19.2 29.05 -21.91 28.32 -24.18 Z M 11.94 -5.36 C 11.22 -5.36 10.84 -5.34 10.81 -5.31 L 10.81 -26.79 L 15.6 -26.74 C 19.9 -26.74 22.04 -23.17 22.04 -16.03 C 22.04 -8.88 19.9 -5.31 15.6 -5.31 Z M 41.97 -9.07 L 41.97 -13.21 L 52.5 -13.21 C 52.78 -14.02 52.92 -15.02 52.92 -16.19 C 52.92 -17.37 52.78 -18.33 52.5 -19.08 L 45.12 -19.08 C 43.84 -19.08 42.79 -19.07 41.97 -19.03 L 41.97 -22.75 L 41.92 -26.08 L 54.94 -26.08 C 55.32 -27.18 55.51 -28.28 55.51 -29.37 C 55.51 -30.47 55.43 -31.38 55.27 -32.1 L 35.2 -32.1 L 34.87 -31.77 L 34.87 -4.09 C 34.87 -2.77 35.24 -1.74 35.98 -0.99 C 36.71 -0.23 37.73 0.14 39.01 0.14 L 51.7 0.14 C 54.33 0.14 55.87 -1.02 56.31 -3.34 C 56.4 -3.9 56.45 -4.75 56.45 -5.87 L 45.36 -5.87 C 44.45 -5.87 43.3 -5.84 41.92 -5.78 L 41.92 -5.83 Z M 78.26 -19.55 C 79.2 -19.3 80.1 -19.18 80.98 -19.18 C 83.71 -19.18 85.07 -20.49 85.07 -23.12 C 85.07 -25.88 83.97 -28.18 81.76 -30.03 C 79.55 -31.88 76.56 -32.81 72.8 -32.81 C 69.04 -32.81 65.89 -31.4 63.33 -28.58 C 60.78 -25.76 59.5 -21.54 59.5 -15.93 C 59.5 -12.39 60.08 -9.27 61.24 -6.58 C 61.87 -5.11 62.66 -3.85 63.61 -2.8 C 64.57 -1.75 65.79 -0.9 67.28 -0.26 C 68.77 0.38 70.6 0.71 72.78 0.71 C 74.96 0.71 77.19 0.23 79.48 -0.73 C 81.76 -1.68 83.61 -2.87 85.02 -4.28 C 84.87 -5.06 84.45 -5.9 83.78 -6.79 C 83.1 -7.68 82.41 -8.38 81.69 -8.88 C 78.65 -6.66 76.02 -5.55 73.81 -5.55 C 71.6 -5.55 69.92 -6.42 68.76 -8.18 C 67.6 -9.93 67.02 -12.59 67.02 -16.14 C 67.02 -19.7 67.49 -22.42 68.43 -24.3 C 69.37 -26.18 70.84 -27.12 72.85 -27.12 C 74.86 -27.12 76.26 -26.43 77.06 -25.05 C 77.86 -23.67 78.26 -22 78.26 -20.02 Z M 95.55 -16.05 C 95.55 -23.52 97.67 -27.26 101.92 -27.26 C 106.17 -27.26 108.29 -23.52 108.29 -16.05 C 108.29 -8.58 106.17 -4.84 101.92 -4.84 C 97.67 -4.84 95.55 -8.58 95.55 -16.05 Z M 93.11 -2.26 C 95.52 -0.28 98.47 0.71 101.94 0.71 C 105.42 0.71 108.37 -0.28 110.78 -2.26 C 114.13 -5.04 115.81 -9.64 115.81 -16.05 C 115.81 -22.46 114.13 -27.06 110.78 -29.84 C 108.37 -31.82 105.42 -32.81 101.94 -32.81 C 98.47 -32.81 95.52 -31.82 93.11 -29.84 C 89.75 -27.06 88.08 -22.46 88.08 -16.05 C 88.08 -9.64 89.75 -5.04 93.11 -2.26 Z M 143.96 -22.23 C 143.96 -25.58 142.93 -28.11 140.86 -29.82 C 138.79 -31.53 136.05 -32.38 132.63 -32.38 C 130.5 -32.38 126.81 -32.32 121.54 -32.19 L 121.21 -31.87 L 121.21 0 C 122.12 0.19 123.3 0.28 124.74 0.28 C 126.18 0.28 127.37 0.19 128.31 0 L 128.31 -11.94 L 130.52 -11.94 C 131.71 -11.94 132.61 -11.67 133.22 -11.14 C 133.83 -10.61 134.29 -9.85 134.61 -8.88 L 136.39 -3.76 C 136.93 -2.22 137.49 -1.14 138.09 -0.52 C 138.68 0.11 139.53 0.42 140.62 0.42 C 141.72 0.42 142.71 0.22 143.58 -0.19 C 144.46 -0.6 145.14 -1.11 145.61 -1.74 C 144.6 -2.52 143.84 -3.67 143.3 -5.17 L 141.8 -9.35 C 141.02 -11.64 139.82 -13.07 138.23 -13.63 C 139.76 -14.19 141.1 -15.24 142.25 -16.78 C 143.39 -18.31 143.96 -20.13 143.96 -22.23 Z M 128.31 -26.98 C 129.25 -26.95 130.5 -26.93 132.07 -26.93 C 135.11 -26.93 136.63 -25.36 136.63 -22.23 C 136.63 -19.1 135.11 -17.53 132.07 -17.53 C 131.63 -17.53 130.38 -17.5 128.31 -17.44 Z M 157.64 -6.86 L 164.31 -6.86 C 165.22 -6.86 165.89 -6.88 166.33 -6.91 L 167.32 -3.48 C 167.73 -1.97 168.24 -0.95 168.87 -0.4 C 169.5 0.15 170.53 0.42 171.97 0.42 C 173.41 0.42 174.65 0.13 175.69 -0.47 L 165.53 -32.05 C 164.47 -32.27 163.11 -32.38 161.45 -32.38 C 159.78 -32.38 158.39 -32.29 157.26 -32.1 L 146.83 -0.56 L 147.11 -0.19 C 147.96 0.16 149.07 0.33 150.45 0.33 C 151.83 0.33 152.88 0.24 153.6 0.05 L 155.66 -6.91 C 156.1 -6.88 156.76 -6.86 157.64 -6.86 Z M 157.31 -12.5 L 158.63 -16.83 C 159.85 -21.06 160.6 -23.94 160.88 -25.47 L 161.12 -25.47 L 164.69 -12.5 C 164.47 -12.5 164.16 -12.51 163.75 -12.53 C 163.34 -12.54 163.06 -12.55 162.9 -12.55 L 159.28 -12.55 Z M 188.94 -26.18 L 188.99 -26.18 L 191.9 -26.13 L 193.55 -26.13 C 194.86 -26.13 195.82 -26.37 196.41 -26.86 C 197.01 -27.35 197.31 -28.14 197.31 -29.23 C 197.31 -30.33 197.18 -31.29 196.93 -32.1 L 173.9 -32.1 C 173.74 -31.19 173.67 -30.2 173.67 -29.12 C 173.67 -28.04 173.74 -27.04 173.9 -26.13 L 178.88 -26.13 L 181.8 -26.18 L 181.84 -26.18 L 181.8 -22.7 L 181.8 0 C 182.77 0.19 183.97 0.28 185.39 0.28 C 186.82 0.28 188.02 0.19 188.99 0 L 188.99 -22.7 Z M 207.98 -9.07 L 207.98 -13.21 L 218.5 -13.21 C 218.79 -14.02 218.93 -15.02 218.93 -16.19 C 218.93 -17.37 218.79 -18.33 218.5 -19.08 L 211.12 -19.08 C 209.84 -19.08 208.79 -19.07 207.98 -19.03 L 207.98 -22.75 L 207.93 -26.08 L 220.95 -26.08 C 221.32 -27.18 221.51 -28.28 221.51 -29.37 C 221.51 -30.47 221.43 -31.38 221.28 -32.1 L 201.21 -32.1 L 200.88 -31.77 L 200.88 -4.09 C 200.88 -2.77 201.25 -1.74 201.98 -0.99 C 202.72 -0.23 203.73 0.14 205.01 0.14 L 217.7 0.14 C 220.34 0.14 221.87 -1.02 222.31 -3.34 C 222.4 -3.9 222.45 -4.75 222.45 -5.87 L 211.36 -5.87 C 210.45 -5.87 209.31 -5.84 207.93 -5.78 L 207.93 -5.83 Z M 252.77 -1.79 L 252.25 -2.35 C 252.06 -2.51 251.9 -2.7 251.76 -2.94 C 251.61 -3.17 251.5 -3.35 251.4 -3.48 C 251.31 -3.6 251.21 -3.81 251.1 -4.11 C 250.99 -4.41 250.91 -4.61 250.86 -4.7 C 250.82 -4.79 250.73 -5.03 250.6 -5.4 C 250.48 -5.78 250.4 -6 250.37 -6.06 L 248.4 -12.03 C 247.86 -13.54 247.21 -14.73 246.44 -15.6 C 245.68 -16.48 244.57 -17.08 243.13 -17.39 C 244.1 -18.2 244.95 -19.3 245.67 -20.68 L 251.54 -31.63 L 251.17 -32.15 C 249.91 -32.27 248.64 -32.34 247.34 -32.34 C 246.04 -32.34 245.13 -32.15 244.61 -31.77 C 244.09 -31.4 243.6 -30.75 243.13 -29.84 L 238.48 -21.15 C 238.13 -20.52 237.84 -20.11 237.59 -19.9 C 237.33 -19.7 236.93 -19.6 236.36 -19.6 L 235 -19.55 L 235 -32.1 C 234.06 -32.29 232.85 -32.38 231.38 -32.38 C 229.91 -32.38 228.72 -32.29 227.81 -32.1 L 227.81 0 C 228.72 0.19 229.91 0.28 231.38 0.28 C 232.85 0.28 234.06 0.19 235 0 L 235 -13.54 C 236.13 -13.6 236.86 -13.63 237.21 -13.63 C 238.37 -13.63 239.29 -13.31 239.98 -12.67 C 240.67 -12.02 241.27 -10.94 241.77 -9.4 L 243.65 -3.71 C 244.09 -2.24 244.61 -1.19 245.22 -0.56 C 245.83 0.06 246.77 0.38 248.02 0.38 C 250.21 0.38 251.79 -0.34 252.77 -1.79 Z M 264.42 -6.86 L 271.1 -6.86 C 272 -6.86 272.68 -6.88 273.12 -6.91 L 274.1 -3.48 C 274.51 -1.97 275.03 -0.95 275.65 -0.4 C 276.28 0.15 277.32 0.42 278.76 0.42 C 280.2 0.42 281.44 0.13 282.47 -0.47 L 272.32 -32.05 C 271.25 -32.27 269.89 -32.38 268.23 -32.38 C 266.57 -32.38 265.17 -32.29 264.05 -32.1 L 253.61 -0.56 L 253.89 -0.19 C 254.74 0.16 255.85 0.33 257.23 0.33 C 258.61 0.33 259.66 0.24 260.38 0.05 L 262.45 -6.91 C 262.89 -6.88 263.54 -6.86 264.42 -6.86 Z M 264.09 -12.5 L 265.41 -16.83 C 266.63 -21.06 267.38 -23.94 267.67 -25.47 L 267.9 -25.47 L 271.47 -12.5 C 271.25 -12.5 270.94 -12.51 270.53 -12.53 C 270.12 -12.54 269.84 -12.55 269.69 -12.55 L 266.07 -12.55 Z M 309.35 -22.23 C 309.35 -25.58 308.32 -28.11 306.25 -29.82 C 304.18 -31.53 301.44 -32.38 298.03 -32.38 C 295.9 -32.38 292.2 -32.32 286.94 -32.19 L 286.61 -31.87 L 286.61 0 C 287.51 0.19 288.69 0.28 290.13 0.28 C 291.57 0.28 292.76 0.19 293.7 0 L 293.7 -11.94 L 295.91 -11.94 C 297.1 -11.94 298 -11.67 298.61 -11.14 C 299.23 -10.61 299.69 -9.85 300 -8.88 L 301.79 -3.76 C 302.32 -2.22 302.88 -1.14 303.48 -0.52 C 304.07 0.11 304.92 0.42 306.02 0.42 C 307.11 0.42 308.1 0.22 308.98 -0.19 C 309.86 -0.6 310.53 -1.11 311 -1.74 C 310 -2.52 309.23 -3.67 308.7 -5.17 L 307.19 -9.35 C 306.41 -11.64 305.22 -13.07 303.62 -13.63 C 305.16 -14.19 306.49 -15.24 307.64 -16.78 C 308.78 -18.31 309.35 -20.13 309.35 -22.23 Z M 293.7 -26.98 C 294.64 -26.95 295.9 -26.93 297.46 -26.93 C 300.5 -26.93 302.02 -25.36 302.02 -22.23 C 302.02 -19.1 300.5 -17.53 297.46 -17.53 C 297.02 -17.53 295.77 -17.5 293.7 -17.44 Z M 326.93 -6.06 C 325.58 -6.06 324.13 -6.02 322.56 -5.92 L 322.56 -27.87 C 322.56 -30.88 321.15 -32.38 318.33 -32.38 L 315.7 -32.38 L 315.37 -32.1 L 315.37 -4.09 C 315.37 -2.77 315.75 -1.74 316.5 -0.99 C 317.25 -0.23 318.27 0.14 319.55 0.14 L 330.36 0.14 C 333.12 0.14 334.69 -1.03 335.06 -3.38 C 335.19 -4.14 335.25 -5.03 335.25 -6.06 Z M 345.5 -16.05 C 345.5 -23.52 347.62 -27.26 351.87 -27.26 C 356.11 -27.26 358.23 -23.52 358.23 -16.05 C 358.23 -8.58 356.11 -4.84 351.87 -4.84 C 347.62 -4.84 345.5 -8.58 345.5 -16.05 Z M 343.05 -2.26 C 345.47 -0.28 348.41 0.71 351.89 0.71 C 355.37 0.71 358.31 -0.28 360.73 -2.26 C 364.08 -5.04 365.75 -9.64 365.75 -16.05 C 365.75 -22.46 364.08 -27.06 360.73 -29.84 C 358.31 -31.82 355.37 -32.81 351.89 -32.81 C 348.41 -32.81 345.47 -31.82 343.05 -29.84 C 339.7 -27.06 338.02 -22.46 338.02 -16.05 C 338.02 -9.64 339.7 -5.04 343.05 -2.26 Z" stroke-linecap="round" />
</g>
<g transform="matrix(0.3 0 0 0.3 342.8 93.17)"  >
<g style="" vector-effect="non-scaling-stroke"   >
		<g transform="matrix(1 0 0 1 0.41 -13.73)"  >
<path style="stroke: none; stroke-width: 1; stroke-dasharray: none; stroke-linecap: butt; stroke-dashoffset: 0; stroke-linejoin: miter; stroke-miterlimit: 4; fill: rgb(0,0,0); fill-rule: nonzero; opacity: 1;" vector-effect="non-scaling-stroke"  transform=" translate(-50.41, -36.59)" d="M 50.342 25.671 C 52.753 25.093 66.072 21.208 56.05 8.386 C 52.878 4.328999999999999 49.732 2.081999999999999 49.732 2.081999999999999 C 49.732 2.081999999999999 47.876 6.171999999999999 45.065 8.302 C 42.285 10.405999999999999 35.79 18.756999999999998 49.497 25.52 C 49.176 26.175 48.918 26.745 48.918 26.745 C 48.918 26.745 46.362 44.691 48.65 57.879000000000005 C 50.937 71.06700000000001 48.65 70.712 48.65 70.712 C 48.65 70.712 50.788 71.578 51.85 70.712 C 52.918 69.84 48.565 32.003 50.249 26.011000000000003 C 50.281 25.894000000000002 50.313 25.782000000000004 50.342000000000006 25.671000000000003 z M 44.126 10.603 C 46.342 7.771 48.440999999999995 6.427 49.973 3.359 C 49.973 3.359 53.644 7.3629999999999995 56.05 9.92 C 58.456999999999994 12.471 61.248 21.842 51.617 23.935000000000002 C 51.617 23.935000000000002 51.192 24.398000000000003 51.361999999999995 22.015 C 51.361999999999995 22.015 52.89699999999999 19.799 51.361999999999995 19.118000000000002 C 51.361999999999995 19.118000000000002 53.013999999999996 16.222 51.02799999999999 17.072000000000003 C 51.02799999999999 17.072000000000003 52.29999999999999 14.478000000000003 51.02799999999999 14.373000000000003 C 51.10799999999999 11.881000000000004 49.97299999999999 13.494000000000003 49.97299999999999 13.494000000000003 C 49.97299999999999 13.494000000000003 47.867999999999995 13.918000000000003 49.91499999999999 15.965000000000003 C 49.91499999999999 15.965000000000003 49.285999999999994 17.584000000000003 49.91499999999999 18.607000000000003 C 49.91499999999999 18.607000000000003 48.58299999999999 19.629 49.37499999999999 20.482000000000003 C 50.169999999999995 21.335000000000004 49.97299999999999 23.890000000000004 49.97299999999999 23.890000000000004 C 49.97299999999999 23.890000000000004 36.80699999999999 19.967000000000006 44.12599999999999 10.603000000000003 z" stroke-linecap="round" />
</g>
		<g transform="matrix(1 0 0 1 0 6.84)"  >
<path style="stroke: none; stroke-width: 1; stroke-dasharray: none; stroke-linecap: butt; stroke-dashoffset: 0; stroke-linejoin: miter; stroke-miterlimit: 4; fill: rgb(0,0,0); fill-rule: nonzero; opacity: 1;" vector-effect="non-scaling-stroke"  transform=" translate(-50, -57.16)" d="M 77.515 56.261 C 76.905 55.932 76.296 55.671 75.674 55.461000000000006 C 78.831 53.70400000000001 81.159 51.69800000000001 81.953 49.56100000000001 C 84.10300000000001 43.76100000000001 92.47200000000001 34.394000000000005 92.736 34.10000000000001 C 88.40100000000001 36.53800000000001 78.119 34.65700000000001 66.85000000000001 37.46900000000001 C 67.65700000000001 35.90200000000001 68.14900000000002 34.32900000000001 68.194 32.82000000000001 C 68.372 26.668000000000006 71.782 15.753000000000007 71.782 15.753000000000007 C 69.499 19.055000000000007 62.284 18.932000000000006 55.647999999999996 24.35300000000001 C 49.016 29.77500000000001 53.086 48.57300000000001 53.086 48.57300000000001 C 53.808 44.339000000000006 55.735 39.73800000000001 55.735 39.73800000000001 C 54.522999999999996 35.489000000000004 54.802 32.443000000000005 55.172 30.784000000000006 C 54.586999999999996 34.028000000000006 56.068 38.367000000000004 56.068 38.367000000000004 C 56.068 38.367000000000004 57.976 35.831 58.113 31.943000000000005 C 58.259 28.063000000000006 59.964 23.403000000000006 59.964 23.403000000000006 C 59.964 23.403000000000006 57.977 30.973000000000006 60.440999999999995 27.474000000000004 C 62.44799999999999 24.615000000000002 65.77 22.453000000000003 66.911 21.765000000000004 C 64.85300000000001 23.095000000000006 63.046 25.369000000000003 61.49 28.077000000000005 C 56.521 36.729000000000006 54.104 49.73800000000001 54.104 49.73800000000001 C 54.647999999999996 49.43300000000001 55.204 49.095000000000006 55.760999999999996 48.742000000000004 C 53.861999999999995 54.596000000000004 53.974 60.513000000000005 53.974 60.513000000000005 C 56.382999999999996 56.63400000000001 60.767999999999994 52.727000000000004 60.767999999999994 52.727000000000004 C 60.233 48.291000000000004 61.608 45.426 62.68899999999999 43.926 C 60.78799999999999 46.899 61.706999999999994 51.493 61.706999999999994 51.493 C 61.706999999999994 51.493 65.398 49.588 66.826 45.878 C 68.17599999999999 42.351 71.90499999999999 38.542 72.26599999999999 38.191 C 71.821 38.758 67.13399999999999 44.771 71.761 42.213 C 75.70599999999999 40.03 81.404 38.882 83.401 38.53 C 79.862 39.224000000000004 76.402 40.916000000000004 73.189 43.092 C 62.905 50.046 55.16 61.923 55.16 61.923 C 55.553 61.864000000000004 55.95099999999999 61.798 56.358999999999995 61.735 C 54.54899999999999 63.234 53.461999999999996 64.381 53.461999999999996 64.381 C 57.904999999999994 63.315 63.763999999999996 63.609 63.763999999999996 63.609 C 66.493 60.069 69.48899999999999 58.995000000000005 71.309 58.674 C 67.869 59.464999999999996 65.292 63.385 65.292 63.385 C 65.292 63.385 69.271 64.619 72.89 62.966 C 76.508 61.322 82.208 61.303000000000004 82.208 61.303000000000004 C 82.208 61.303000000000004 73.637 62.337 78.979 63.824000000000005 C 83.672 65.134 88.973 68.727 90.194 69.593 C 87.113 67.46900000000001 83.339 66.186 79.379 65.45 C 67.174 63.188 53.31700000000001 66.22200000000001 53.31700000000001 66.22200000000001 C 56.637210914450016 68.61480173262764 60.14452190937359 70.73664462572356 63.805000000000014 72.56700000000001 C 61.07200000000001 74.31700000000001 55.69800000000001 75.512 49.504000000000005 75.512 C 44.024 75.512 39.18000000000001 74.58 36.24400000000001 73.152 C 39.85811208908167 71.27500299369908 43.31439363032523 69.1085983662994 46.57900000000002 66.674 C 46.57900000000001 66.674 32.68400000000001 63.857000000000006 20.51300000000001 66.29400000000001 C 16.62700000000001 67.06600000000002 12.917000000000009 68.39300000000001 9.89300000000001 70.504 C 11.33100000000001 69.467 16.37800000000001 65.99300000000001 20.887000000000008 64.66300000000001 C 26.20200000000001 63.09500000000001 17.616000000000007 62.19200000000001 17.616000000000007 62.19200000000001 C 17.616000000000007 62.19200000000001 23.317000000000007 62.12500000000001 26.963000000000008 63.717000000000006 C 30.607000000000006 65.313 34.56100000000001 64.02000000000001 34.56100000000001 64.02000000000001 C 34.56100000000001 64.02000000000001 31.932000000000006 60.13400000000001 28.47800000000001 59.40000000000001 C 30.306000000000008 59.686000000000014 33.30800000000001 60.716000000000015 36.09300000000001 64.21700000000001 C 36.09300000000001 64.21700000000001 41.94700000000001 63.835000000000015 46.41100000000001 64.84000000000002 C 46.41100000000001 64.84000000000002 45.30100000000001 63.70500000000002 43.473000000000006 62.22900000000002 C 43.88 62.29100000000002 44.28000000000001 62.34800000000002 44.67300000000001 62.40800000000002 C 44.67300000000001 62.40800000000002 36.74800000000001 50.64300000000002 26.36000000000001 43.84600000000002 C 23.12300000000001 41.73000000000002 19.635000000000012 40.09000000000002 16.082000000000008 39.44100000000002 C 18.081000000000007 39.76300000000002 23.797000000000008 40.83100000000002 27.769000000000005 42.94700000000002 C 32.357000000000006 45.393000000000015 27.829000000000004 39.69700000000002 27.238000000000007 38.96800000000002 C 27.749000000000006 39.45300000000002 31.393000000000008 43.11100000000002 32.76800000000001 46.53200000000002 C 34.24600000000001 50.22300000000002 37.97500000000001 52.076000000000015 37.97500000000001 52.076000000000015 C 37.97500000000001 52.076000000000015 38.82000000000001 47.46200000000002 36.87300000000001 44.51900000000001 C 37.97500000000001 46.006000000000014 39.390000000000015 48.85200000000001 38.924000000000014 53.295000000000016 C 38.924000000000014 53.295000000000016 43.36100000000001 57.13000000000002 45.84000000000002 60.97100000000002 C 45.84000000000002 60.97100000000002 45.865000000000016 55.05200000000002 43.86700000000002 49.23200000000001 C 44.43600000000002 49.58000000000001 44.99200000000002 49.90700000000001 45.54600000000002 50.201000000000015 C 45.54600000000002 50.201000000000015 42.92300000000002 37.23000000000002 37.82300000000002 28.657000000000014 C 36.15200000000002 25.846000000000014 34.21900000000002 23.506000000000014 32.017000000000024 22.247000000000014 C 32.70400000000002 22.633000000000013 36.587000000000025 24.894000000000013 38.87200000000003 28.035000000000014 C 41.39000000000003 31.495000000000015 39.28600000000003 23.958000000000013 39.28600000000003 23.958000000000013 C 39.28600000000003 23.958000000000013 41.06300000000003 28.59100000000001 41.26500000000003 32.47200000000001 C 41.46000000000003 36.35300000000001 43.40400000000003 38.86300000000001 43.40400000000003 38.86300000000001 C 43.40400000000003 38.86300000000001 44.81900000000003 34.50300000000001 44.18900000000003 31.265000000000008 C 44.58200000000003 32.91700000000001 44.91100000000003 35.96500000000001 43.75600000000003 40.22500000000001 C 43.75600000000003 40.22500000000001 45.75500000000003 44.80000000000001 46.541000000000025 49.016000000000005 C 46.541000000000025 49.016000000000005 50.322000000000024 30.165000000000006 43.611000000000026 24.841000000000005 C 36.89900000000003 19.533000000000005 29.696000000000026 19.756000000000004 27.356000000000027 16.493000000000002 C 27.461000000000027 16.826 30.93600000000003 27.450000000000003 31.197000000000028 33.5 C 31.264000000000028 35.008 31.780000000000026 36.575 32.60600000000003 38.127 C 21.30700000000003 35.485 11.05000000000003 37.525000000000006 6.677000000000032 35.145 C 6.9400000000000315 35.434000000000005 15.453000000000031 44.68300000000001 17.695000000000032 50.444 C 18.52000000000003 52.575 20.881000000000032 54.540000000000006 24.059000000000033 56.251000000000005 C 23.444000000000035 56.467000000000006 22.83400000000003 56.73500000000001 22.237000000000034 57.077000000000005 C 11.539 63.144 5.357 72.482 0.37 73.905 C 0.37 73.905 13.235999999999999 74.502 18.964000000000002 77.077 C 22.295 78.58 28.128 77.03699999999999 34.158 74.187 L 38.438 94.773 C 38.438 96.871 43.392 98.566 49.503 98.566 C 55.611 98.566 60.565 96.87100000000001 60.565 94.773 L 65.054 73.169 C 71.401 76.166 77.63300000000001 77.823 81.087 76.205 C 86.772 73.54299999999999 99.629 72.751 99.629 72.751 C 94.623 71.4 88.297 62.160000000000004 77.515 56.26100000000001 z M 15.543 39.356 C 15.626999999999999 39.368 15.734 39.382000000000005 15.863999999999999 39.408 C 15.751 39.39 15.648 39.375 15.543 39.356 z" stroke-linecap="round" />
</g>
</g>
</g>
<g transform="matrix(0.72 0 0 0.84 150 75.08)"  >
<path style="stroke: rgb(0,0,0); stroke-width: 0; stroke-dasharray: none; stroke-linecap: butt; stroke-dashoffset: 0; stroke-linejoin: miter; stroke-miterlimit: 4; fill: rgb(8,8,8); fill-rule: nonzero; opacity: 1;" vector-effect="non-scaling-stroke"  transform=" translate(-184.71, 16.05)" d="M 28.32 -24.18 C 27.58 -26.45 26.19 -28.39 24.16 -29.99 C 23.19 -30.77 21.89 -31.36 20.26 -31.77 C 18.63 -32.18 17.08 -32.38 15.6 -32.38 C 11.47 -32.38 7.6 -32.32 3.99 -32.19 L 3.67 -31.87 L 3.67 -0.23 L 3.99 0.09 C 9.45 0.22 13.11 0.28 14.99 0.28 C 16.87 0.28 18.63 0.09 20.26 -0.31 C 21.89 -0.7 23.19 -1.28 24.16 -2.07 C 26.23 -3.67 27.62 -5.61 28.34 -7.9 C 29.06 -10.18 29.42 -12.9 29.42 -16.05 C 29.42 -19.2 29.05 -21.91 28.32 -24.18 Z M 11.94 -5.36 C 11.22 -5.36 10.84 -5.34 10.81 -5.31 L 10.81 -26.79 L 15.6 -26.74 C 19.9 -26.74 22.04 -23.17 22.04 -16.03 C 22.04 -8.88 19.9 -5.31 15.6 -5.31 Z M 41.97 -9.07 L 41.97 -13.21 L 52.5 -13.21 C 52.78 -14.02 52.92 -15.02 52.92 -16.19 C 52.92 -17.37 52.78 -18.33 52.5 -19.08 L 45.12 -19.08 C 43.84 -19.08 42.79 -19.07 41.97 -19.03 L 41.97 -22.75 L 41.92 -26.08 L 54.94 -26.08 C 55.32 -27.18 55.51 -28.28 55.51 -29.37 C 55.51 -30.47 55.43 -31.38 55.27 -32.1 L 35.2 -32.1 L 34.87 -31.77 L 34.87 -4.09 C 34.87 -2.77 35.24 -1.74 35.98 -0.99 C 36.71 -0.23 37.73 0.14 39.01 0.14 L 51.7 0.14 C 54.33 0.14 55.87 -1.02 56.31 -3.34 C 56.4 -3.9 56.45 -4.75 56.45 -5.87 L 45.36 -5.87 C 44.45 -5.87 43.3 -5.84 41.92 -5.78 L 41.92 -5.83 Z M 78.26 -19.55 C 79.2 -19.3 80.1 -19.18 80.98 -19.18 C 83.71 -19.18 85.07 -20.49 85.07 -23.12 C 85.07 -25.88 83.97 -28.18 81.76 -30.03 C 79.55 -31.88 76.56 -32.81 72.8 -32.81 C 69.04 -32.81 65.89 -31.4 63.33 -28.58 C 60.78 -25.76 59.5 -21.54 59.5 -15.93 C 59.5 -12.39 60.08 -9.27 61.24 -6.58 C 61.87 -5.11 62.66 -3.85 63.61 -2.8 C 64.57 -1.75 65.79 -0.9 67.28 -0.26 C 68.77 0.38 70.6 0.71 72.78 0.71 C 74.96 0.71 77.19 0.23 79.48 -0.73 C 81.76 -1.68 83.61 -2.87 85.02 -4.28 C 84.87 -5.06 84.45 -5.9 83.78 -6.79 C 83.1 -7.68 82.41 -8.38 81.69 -8.88 C 78.65 -6.66 76.02 -5.55 73.81 -5.55 C 71.6 -5.55 69.92 -6.42 68.76 -8.18 C 67.6 -9.93 67.02 -12.59 67.02 -16.14 C 67.02 -19.7 67.49 -22.42 68.43 -24.3 C 69.37 -26.18 70.84 -27.12 72.85 -27.12 C 74.86 -27.12 76.26 -26.43 77.06 -25.05 C 77.86 -23.67 78.26 -22 78.26 -20.02 Z M 95.55 -16.05 C 95.55 -23.52 97.67 -27.26 101.92 -27.26 C 106.17 -27.26 108.29 -23.52 108.29 -16.05 C 108.29 -8.58 106.17 -4.84 101.92 -4.84 C 97.67 -4.84 95.55 -8.58 95.55 -16.05 Z M 93.11 -2.26 C 95.52 -0.28 98.47 0.71 101.94 0.71 C 105.42 0.71 108.37 -0.28 110.78 -2.26 C 114.13 -5.04 115.81 -9.64 115.81 -16.05 C 115.81 -22.46 114.13 -27.06 110.78 -29.84 C 108.37 -31.82 105.42 -32.81 101.94 -32.81 C 98.47 -32.81 95.52 -31.82 93.11 -29.84 C 89.75 -27.06 88.08 -22.46 88.08 -16.05 C 88.08 -9.64 89.75 -5.04 93.11 -2.26 Z M 143.96 -22.23 C 143.96 -25.58 142.93 -28.11 140.86 -29.82 C 138.79 -31.53 136.05 -32.38 132.63 -32.38 C 130.5 -32.38 126.81 -32.32 121.54 -32.19 L 121.21 -31.87 L 121.21 0 C 122.12 0.19 123.3 0.28 124.74 0.28 C 126.18 0.28 127.37 0.19 128.31 0 L 128.31 -11.94 L 130.52 -11.94 C 131.71 -11.94 132.61 -11.67 133.22 -11.14 C 133.83 -10.61 134.29 -9.85 134.61 -8.88 L 136.39 -3.76 C 136.93 -2.22 137.49 -1.14 138.09 -0.52 C 138.68 0.11 139.53 0.42 140.62 0.42 C 141.72 0.42 142.71 0.22 143.58 -0.19 C 144.46 -0.6 145.14 -1.11 145.61 -1.74 C 144.6 -2.52 143.84 -3.67 143.3 -5.17 L 141.8 -9.35 C 141.02 -11.64 139.82 -13.07 138.23 -13.63 C 139.76 -14.19 141.1 -15.24 142.25 -16.78 C 143.39 -18.31 143.96 -20.13 143.96 -22.23 Z M 128.31 -26.98 C 129.25 -26.95 130.5 -26.93 132.07 -26.93 C 135.11 -26.93 136.63 -25.36 136.63 -22.23 C 136.63 -19.1 135.11 -17.53 132.07 -17.53 C 131.63 -17.53 130.38 -17.5 128.31 -17.44 Z M 157.64 -6.86 L 164.31 -6.86 C 165.22 -6.86 165.89 -6.88 166.33 -6.91 L 167.32 -3.48 C 167.73 -1.97 168.24 -0.95 168.87 -0.4 C 169.5 0.15 170.53 0.42 171.97 0.42 C 173.41 0.42 174.65 0.13 175.69 -0.47 L 165.53 -32.05 C 164.47 -32.27 163.11 -32.38 161.45 -32.38 C 159.78 -32.38 158.39 -32.29 157.26 -32.1 L 146.83 -0.56 L 147.11 -0.19 C 147.96 0.16 149.07 0.33 150.45 0.33 C 151.83 0.33 152.88 0.24 153.6 0.05 L 155.66 -6.91 C 156.1 -6.88 156.76 -6.86 157.64 -6.86 Z M 157.31 -12.5 L 158.63 -16.83 C 159.85 -21.06 160.6 -23.94 160.88 -25.47 L 161.12 -25.47 L 164.69 -12.5 C 164.47 -12.5 164.16 -12.51 163.75 -12.53 C 163.34 -12.54 163.06 -12.55 162.9 -12.55 L 159.28 -12.55 Z M 188.94 -26.18 L 188.99 -26.18 L 191.9 -26.13 L 193.55 -26.13 C 194.86 -26.13 195.82 -26.37 196.41 -26.86 C 197.01 -27.35 197.31 -28.14 197.31 -29.23 C 197.31 -30.33 197.18 -31.29 196.93 -32.1 L 173.9 -32.1 C 173.74 -31.19 173.67 -30.2 173.67 -29.12 C 173.67 -28.04 173.74 -27.04 173.9 -26.13 L 178.88 -26.13 L 181.8 -26.18 L 181.84 -26.18 L 181.8 -22.7 L 181.8 0 C 182.77 0.19 183.97 0.28 185.39 0.28 C 186.82 0.28 188.02 0.19 188.99 0 L 188.99 -22.7 Z M 207.98 -9.07 L 207.98 -13.21 L 218.5 -13.21 C 218.79 -14.02 218.93 -15.02 218.93 -16.19 C 218.93 -17.37 218.79 -18.33 218.5 -19.08 L 211.12 -19.08 C 209.84 -19.08 208.79 -19.07 207.98 -19.03 L 207.98 -22.75 L 207.93 -26.08 L 220.95 -26.08 C 221.32 -27.18 221.51 -28.28 221.51 -29.37 C 221.51 -30.47 221.43 -31.38 221.28 -32.1 L 201.21 -32.1 L 200.88 -31.77 L 200.88 -4.09 C 200.88 -2.77 201.25 -1.74 201.98 -0.99 C 202.72 -0.23 203.73 0.14 205.01 0.14 L 217.7 0.14 C 220.34 0.14 221.87 -1.02 222.31 -3.34 C 222.4 -3.9 222.45 -4.75 222.45 -5.87 L 211.36 -5.87 C 210.45 -5.87 209.31 -5.84 207.93 -5.78 L 207.93 -5.83 Z M 252.77 -1.79 L 252.25 -2.35 C 252.06 -2.51 251.9 -2.7 251.76 -2.94 C 251.61 -3.17 251.5 -3.35 251.4 -3.48 C 251.31 -3.6 251.21 -3.81 251.1 -4.11 C 250.99 -4.41 250.91 -4.61 250.86 -4.7 C 250.82 -4.79 250.73 -5.03 250.6 -5.4 C 250.48 -5.78 250.4 -6 250.37 -6.06 L 248.4 -12.03 C 247.86 -13.54 247.21 -14.73 246.44 -15.6 C 245.68 -16.48 244.57 -17.08 243.13 -17.39 C 244.1 -18.2 244.95 -19.3 245.67 -20.68 L 251.54 -31.63 L 251.17 -32.15 C 249.91 -32.27 248.64 -32.34 247.34 -32.34 C 246.04 -32.34 245.13 -32.15 244.61 -31.77 C 244.09 -31.4 243.6 -30.75 243.13 -29.84 L 238.48 -21.15 C 238.13 -20.52 237.84 -20.11 237.59 -19.9 C 237.33 -19.7 236.93 -19.6 236.36 -19.6 L 235 -19.55 L 235 -32.1 C 234.06 -32.29 232.85 -32.38 231.38 -32.38 C 229.91 -32.38 228.72 -32.29 227.81 -32.1 L 227.81 0 C 228.72 0.19 229.91 0.28 231.38 0.28 C 232.85 0.28 234.06 0.19 235 0 L 235 -13.54 C 236.13 -13.6 236.86 -13.63 237.21 -13.63 C 238.37 -13.63 239.29 -13.31 239.98 -12.67 C 240.67 -12.02 241.27 -10.94 241.77 -9.4 L 243.65 -3.71 C 244.09 -2.24 244.61 -1.19 245.22 -0.56 C 245.83 0.06 246.77 0.38 248.02 0.38 C 250.21 0.38 251.79 -0.34 252.77 -1.79 Z M 264.42 -6.86 L 271.1 -6.86 C 272 -6.86 272.68 -6.88 273.12 -6.91 L 274.1 -3.48 C 274.51 -1.97 275.03 -0.95 275.65 -0.4 C 276.28 0.15 277.32 0.42 278.76 0.42 C 280.2 0.42 281.44 0.13 282.47 -0.47 L 272.32 -32.05 C 271.25 -32.27 269.89 -32.38 268.23 -32.38 C 266.57 -32.38 265.17 -32.29 264.05 -32.1 L 253.61 -0.56 L 253.89 -0.19 C 254.74 0.16 255.85 0.33 257.23 0.33 C 258.61 0.33 259.66 0.24 260.38 0.05 L 262.45 -6.91 C 262.89 -6.88 263.54 -6.86 264.42 -6.86 Z M 264.09 -12.5 L 265.41 -16.83 C 266.63 -21.06 267.38 -23.94 267.67 -25.47 L 267.9 -25.47 L 271.47 -12.5 C 271.25 -12.5 270.94 -12.51 270.53 -12.53 C 270.12 -12.54 269.84 -12.55 269.69 -12.55 L 266.07 -12.55 Z M 309.35 -22.23 C 309.35 -25.58 308.32 -28.11 306.25 -29.82 C 304.18 -31.53 301.44 -32.38 298.03 -32.38 C 295.9 -32.38 292.2 -32.32 286.94 -32.19 L 286.61 -31.87 L 286.61 0 C 287.51 0.19 288.69 0.28 290.13 0.28 C 291.57 0.28 292.76 0.19 293.7 0 L 293.7 -11.94 L 295.91 -11.94 C 297.1 -11.94 298 -11.67 298.61 -11.14 C 299.23 -10.61 299.69 -9.85 300 -8.88 L 301.79 -3.76 C 302.32 -2.22 302.88 -1.14 303.48 -0.52 C 304.07 0.11 304.92 0.42 306.02 0.42 C 307.11 0.42 308.1 0.22 308.98 -0.19 C 309.86 -0.6 310.53 -1.11 311 -1.74 C 310 -2.52 309.23 -3.67 308.7 -5.17 L 307.19 -9.35 C 306.41 -11.64 305.22 -13.07 303.62 -13.63 C 305.16 -14.19 306.49 -15.24 307.64 -16.78 C 308.78 -18.31 309.35 -20.13 309.35 -22.23 Z M 293.7 -26.98 C 294.64 -26.95 295.9 -26.93 297.46 -26.93 C 300.5 -26.93 302.02 -25.36 302.02 -22.23 C 302.02 -19.1 300.5 -17.53 297.46 -17.53 C 297.02 -17.53 295.77 -17.5 293.7 -17.44 Z M 326.93 -6.06 C 325.58 -6.06 324.13 -6.02 322.56 -5.92 L 322.56 -27.87 C 322.56 -30.88 321.15 -32.38 318.33 -32.38 L 315.7 -32.38 L 315.37 -32.1 L 315.37 -4.09 C 315.37 -2.77 315.75 -1.74 316.5 -0.99 C 317.25 -0.23 318.27 0.14 319.55 0.14 L 330.36 0.14 C 333.12 0.14 334.69 -1.03 335.06 -3.38 C 335.19 -4.14 335.25 -5.03 335.25 -6.06 Z M 345.5 -16.05 C 345.5 -23.52 347.62 -27.26 351.87 -27.26 C 356.11 -27.26 358.23 -23.52 358.23 -16.05 C 358.23 -8.58 356.11 -4.84 351.87 -4.84 C 347.62 -4.84 345.5 -8.58 345.5 -16.05 Z M 343.05 -2.26 C 345.47 -0.28 348.41 0.71 351.89 0.71 C 355.37 0.71 358.31 -0.28 360.73 -2.26 C 364.08 -5.04 365.75 -9.64 365.75 -16.05 C 365.75 -22.46 364.08 -27.06 360.73 -29.84 C 358.31 -31.82 355.37 -32.81 351.89 -32.81 C 348.41 -32.81 345.47 -31.82 343.05 -29.84 C 339.7 -27.06 338.02 -22.46 338.02 -16.05 C 338.02 -9.64 339.7 -5.04 343.05 -2.26 Z" stroke-linecap="round" />
</g>
<g transform="matrix(0.52 0 0 0.52 209.72 32.66)"  >
<g style="" vector-effect="non-scaling-stroke"   >
		<g transform="matrix(1 0 0 1 0.41 -13.73)"  >
<path style="stroke: none; stroke-width: 1; stroke-dasharray: none; stroke-linecap: butt; stroke-dashoffset: 0; stroke-linejoin: miter; stroke-miterlimit: 4; fill: rgb(0,0,0); fill-rule: nonzero; opacity: 1;" vector-effect="non-scaling-stroke"  transform=" translate(-50.41, -36.59)" d="M 50.342 25.671 C 52.753 25.093 66.072 21.208 56.05 8.386 C 52.878 4.328999999999999 49.732 2.081999999999999 49.732 2.081999999999999 C 49.732 2.081999999999999 47.876 6.171999999999999 45.065 8.302 C 42.285 10.405999999999999 35.79 18.756999999999998 49.497 25.52 C 49.176 26.175 48.918 26.745 48.918 26.745 C 48.918 26.745 46.362 44.691 48.65 57.879000000000005 C 50.937 71.06700000000001 48.65 70.712 48.65 70.712 C 48.65 70.712 50.788 71.578 51.85 70.712 C 52.918 69.84 48.565 32.003 50.249 26.011000000000003 C 50.281 25.894000000000002 50.313 25.782000000000004 50.342000000000006 25.671000000000003 z M 44.126 10.603 C 46.342 7.771 48.440999999999995 6.427 49.973 3.359 C 49.973 3.359 53.644 7.3629999999999995 56.05 9.92 C 58.456999999999994 12.471 61.248 21.842 51.617 23.935000000000002 C 51.617 23.935000000000002 51.192 24.398000000000003 51.361999999999995 22.015 C 51.361999999999995 22.015 52.89699999999999 19.799 51.361999999999995 19.118000000000002 C 51.361999999999995 19.118000000000002 53.013999999999996 16.222 51.02799999999999 17.072000000000003 C 51.02799999999999 17.072000000000003 52.29999999999999 14.478000000000003 51.02799999999999 14.373000000000003 C 51.10799999999999 11.881000000000004 49.97299999999999 13.494000000000003 49.97299999999999 13.494000000000003 C 49.97299999999999 13.494000000000003 47.867999999999995 13.918000000000003 49.91499999999999 15.965000000000003 C 49.91499999999999 15.965000000000003 49.285999999999994 17.584000000000003 49.91499999999999 18.607000000000003 C 49.91499999999999 18.607000000000003 48.58299999999999 19.629 49.37499999999999 20.482000000000003 C 50.169999999999995 21.335000000000004 49.97299999999999 23.890000000000004 49.97299999999999 23.890000000000004 C 49.97299999999999 23.890000000000004 36.80699999999999 19.967000000000006 44.12599999999999 10.603000000000003 z" stroke-linecap="round" />
</g>
		<g transform="matrix(1 0 0 1 0 6.84)"  >
<path style="stroke: none; stroke-width: 1; stroke-dasharray: none; stroke-linecap: butt; stroke-dashoffset: 0; stroke-linejoin: miter; stroke-miterlimit: 4; fill: rgb(0,0,0); fill-rule: nonzero; opacity: 1;" vector-effect="non-scaling-stroke"  transform=" translate(-50, -57.16)" d="M 77.515 56.261 C 76.905 55.932 76.296 55.671 75.674 55.461000000000006 C 78.831 53.70400000000001 81.159 51.69800000000001 81.953 49.56100000000001 C 84.10300000000001 43.76100000000001 92.47200000000001 34.394000000000005 92.736 34.10000000000001 C 88.40100000000001 36.53800000000001 78.119 34.65700000000001 66.85000000000001 37.46900000000001 C 67.65700000000001 35.90200000000001 68.14900000000002 34.32900000000001 68.194 32.82000000000001 C 68.372 26.668000000000006 71.782 15.753000000000007 71.782 15.753000000000007 C 69.499 19.055000000000007 62.284 18.932000000000006 55.647999999999996 24.35300000000001 C 49.016 29.77500000000001 53.086 48.57300000000001 53.086 48.57300000000001 C 53.808 44.339000000000006 55.735 39.73800000000001 55.735 39.73800000000001 C 54.522999999999996 35.489000000000004 54.802 32.443000000000005 55.172 30.784000000000006 C 54.586999999999996 34.028000000000006 56.068 38.367000000000004 56.068 38.367000000000004 C 56.068 38.367000000000004 57.976 35.831 58.113 31.943000000000005 C 58.259 28.063000000000006 59.964 23.403000000000006 59.964 23.403000000000006 C 59.964 23.403000000000006 57.977 30.973000000000006 60.440999999999995 27.474000000000004 C 62.44799999999999 24.615000000000002 65.77 22.453000000000003 66.911 21.765000000000004 C 64.85300000000001 23.095000000000006 63.046 25.369000000000003 61.49 28.077000000000005 C 56.521 36.729000000000006 54.104 49.73800000000001 54.104 49.73800000000001 C 54.647999999999996 49.43300000000001 55.204 49.095000000000006 55.760999999999996 48.742000000000004 C 53.861999999999995 54.596000000000004 53.974 60.513000000000005 53.974 60.513000000000005 C 56.382999999999996 56.63400000000001 60.767999999999994 52.727000000000004 60.767999999999994 52.727000000000004 C 60.233 48.291000000000004 61.608 45.426 62.68899999999999 43.926 C 60.78799999999999 46.899 61.706999999999994 51.493 61.706999999999994 51.493 C 61.706999999999994 51.493 65.398 49.588 66.826 45.878 C 68.17599999999999 42.351 71.90499999999999 38.542 72.26599999999999 38.191 C 71.821 38.758 67.13399999999999 44.771 71.761 42.213 C 75.70599999999999 40.03 81.404 38.882 83.401 38.53 C 79.862 39.224000000000004 76.402 40.916000000000004 73.189 43.092 C 62.905 50.046 55.16 61.923 55.16 61.923 C 55.553 61.864000000000004 55.95099999999999 61.798 56.358999999999995 61.735 C 54.54899999999999 63.234 53.461999999999996 64.381 53.461999999999996 64.381 C 57.904999999999994 63.315 63.763999999999996 63.609 63.763999999999996 63.609 C 66.493 60.069 69.48899999999999 58.995000000000005 71.309 58.674 C 67.869 59.464999999999996 65.292 63.385 65.292 63.385 C 65.292 63.385 69.271 64.619 72.89 62.966 C 76.508 61.322 82.208 61.303000000000004 82.208 61.303000000000004 C 82.208 61.303000000000004 73.637 62.337 78.979 63.824000000000005 C 83.672 65.134 88.973 68.727 90.194 69.593 C 87.113 67.46900000000001 83.339 66.186 79.379 65.45 C 67.174 63.188 53.31700000000001 66.22200000000001 53.31700000000001 66.22200000000001 C 56.637210914450016 68.61480173262764 60.14452190937359 70.73664462572356 63.805000000000014 72.56700000000001 C 61.07200000000001 74.31700000000001 55.69800000000001 75.512 49.504000000000005 75.512 C 44.024 75.512 39.18000000000001 74.58 36.24400000000001 73.152 C 39.85811208908167 71.27500299369908 43.31439363032523 69.1085983662994 46.57900000000002 66.674 C 46.57900000000001 66.674 32.68400000000001 63.857000000000006 20.51300000000001 66.29400000000001 C 16.62700000000001 67.06600000000002 12.917000000000009 68.39300000000001 9.89300000000001 70.504 C 11.33100000000001 69.467 16.37800000000001 65.99300000000001 20.887000000000008 64.66300000000001 C 26.20200000000001 63.09500000000001 17.616000000000007 62.19200000000001 17.616000000000007 62.19200000000001 C 17.616000000000007 62.19200000000001 23.317000000000007 62.12500000000001 26.963000000000008 63.717000000000006 C 30.607000000000006 65.313 34.56100000000001 64.02000000000001 34.56100000000001 64.02000000000001 C 34.56100000000001 64.02000000000001 31.932000000000006 60.13400000000001 28.47800000000001 59.40000000000001 C 30.306000000000008 59.686000000000014 33.30800000000001 60.716000000000015 36.09300000000001 64.21700000000001 C 36.09300000000001 64.21700000000001 41.94700000000001 63.835000000000015 46.41100000000001 64.84000000000002 C 46.41100000000001 64.84000000000002 45.30100000000001 63.70500000000002 43.473000000000006 62.22900000000002 C 43.88 62.29100000000002 44.28000000000001 62.34800000000002 44.67300000000001 62.40800000000002 C 44.67300000000001 62.40800000000002 36.74800000000001 50.64300000000002 26.36000000000001 43.84600000000002 C 23.12300000000001 41.73000000000002 19.635000000000012 40.09000000000002 16.082000000000008 39.44100000000002 C 18.081000000000007 39.76300000000002 23.797000000000008 40.83100000000002 27.769000000000005 42.94700000000002 C 32.357000000000006 45.393000000000015 27.829000000000004 39.69700000000002 27.238000000000007 38.96800000000002 C 27.749000000000006 39.45300000000002 31.393000000000008 43.11100000000002 32.76800000000001 46.53200000000002 C 34.24600000000001 50.22300000000002 37.97500000000001 52.076000000000015 37.97500000000001 52.076000000000015 C 37.97500000000001 52.076000000000015 38.82000000000001 47.46200000000002 36.87300000000001 44.51900000000001 C 37.97500000000001 46.006000000000014 39.390000000000015 48.85200000000001 38.924000000000014 53.295000000000016 C 38.924000000000014 53.295000000000016 43.36100000000001 57.13000000000002 45.84000000000002 60.97100000000002 C 45.84000000000002 60.97100000000002 45.865000000000016 55.05200000000002 43.86700000000002 49.23200000000001 C 44.43600000000002 49.58000000000001 44.99200000000002 49.90700000000001 45.54600000000002 50.201000000000015 C 45.54600000000002 50.201000000000015 42.92300000000002 37.23000000000002 37.82300000000002 28.657000000000014 C 36.15200000000002 25.846000000000014 34.21900000000002 23.506000000000014 32.017000000000024 22.247000000000014 C 32.70400000000002 22.633000000000013 36.587000000000025 24.894000000000013 38.87200000000003 28.035000000000014 C 41.39000000000003 31.495000000000015 39.28600000000003 23.958000000000013 39.28600000000003 23.958000000000013 C 39.28600000000003 23.958000000000013 41.06300000000003 28.59100000000001 41.26500000000003 32.47200000000001 C 41.46000000000003 36.35300000000001 43.40400000000003 38.86300000000001 43.40400000000003 38.86300000000001 C 43.40400000000003 38.86300000000001 44.81900000000003 34.50300000000001 44.18900000000003 31.265000000000008 C 44.58200000000003 32.91700000000001 44.91100000000003 35.96500000000001 43.75600000000003 40.22500000000001 C 43.75600000000003 40.22500000000001 45.75500000000003 44.80000000000001 46.541000000000025 49.016000000000005 C 46.541000000000025 49.016000000000005 50.322000000000024 30.165000000000006 43.611000000000026 24.841000000000005 C 36.89900000000003 19.533000000000005 29.696000000000026 19.756000000000004 27.356000000000027 16.493000000000002 C 27.461000000000027 16.826 30.93600000000003 27.450000000000003 31.197000000000028 33.5 C 31.264000000000028 35.008 31.780000000000026 36.575 32.60600000000003 38.127 C 21.30700000000003 35.485 11.05000000000003 37.525000000000006 6.677000000000032 35.145 C 6.9400000000000315 35.434000000000005 15.453000000000031 44.68300000000001 17.695000000000032 50.444 C 18.52000000000003 52.575 20.881000000000032 54.540000000000006 24.059000000000033 56.251000000000005 C 23.444000000000035 56.467000000000006 22.83400000000003 56.73500000000001 22.237000000000034 57.077000000000005 C 11.539 63.144 5.357 72.482 0.37 73.905 C 0.37 73.905 13.235999999999999 74.502 18.964000000000002 77.077 C 22.295 78.58 28.128 77.03699999999999 34.158 74.187 L 38.438 94.773 C 38.438 96.871 43.392 98.566 49.503 98.566 C 55.611 98.566 60.565 96.87100000000001 60.565 94.773 L 65.054 73.169 C 71.401 76.166 77.63300000000001 77.823 81.087 76.205 C 86.772 73.54299999999999 99.629 72.751 99.629 72.751 C 94.623 71.4 88.297 62.160000000000004 77.515 56.26100000000001 z M 15.543 39.356 C 15.626999999999999 39.368 15.734 39.382000000000005 15.863999999999999 39.408 C 15.751 39.39 15.648 39.375 15.543 39.356 z" stroke-linecap="round" />
</g>
</g>
</g>
</svg>